# This file uses centimeters as units for non-parametric coordinates.

mtllib ducto_camino.mtl
g default
v 1357.833496 212.254898 -1032.249756
v 1350.025391 227.579620 -1032.249756
v 1337.863770 239.741425 -1032.249756
v 1322.539551 247.549835 -1032.249756
v 1305.552002 250.240387 -1032.249756
v 1288.563721 247.549835 -1032.249756
v 1273.239502 239.741425 -1032.249756
v 1261.077759 227.579620 -1032.249756
v 1253.269531 212.254898 -1032.249756
v 1250.578491 195.267288 -1032.249756
v 1253.269531 178.279724 -1032.249756
v 1261.077759 162.955002 -1032.249756
v 1273.239502 150.793213 -1032.249756
v 1288.563721 142.984863 -1032.249756
v 1305.552002 140.294296 -1032.249756
v 1322.539551 142.984863 -1032.249756
v 1337.863770 150.793213 -1032.249756
v 1350.025391 162.955002 -1032.249756
v 1357.833496 178.279724 -1032.249756
v 1360.524780 195.267288 -1032.249756
v 1354.528809 220.222610 -1032.249756
v 1359.755005 212.879211 -911.820007
v 1351.660156 228.767105 -911.820007
v 1344.420166 234.136108 -1032.249756
v 1339.051392 241.375870 -911.820007
v 1330.507080 244.244904 -1032.249756
v 1323.164307 249.471191 -911.820007
v 1314.151123 249.559418 -1032.249756
v 1305.552002 252.260620 -911.820007
v 1296.952637 249.559418 -1032.249756
v 1287.939087 249.471191 -911.820007
v 1280.596191 244.244904 -1032.249756
v 1272.051758 241.375870 -911.820007
v 1266.683105 234.136108 -1032.249756
v 1259.443237 228.767105 -911.820007
v 1256.574341 220.222610 -1032.249756
v 1251.348267 212.879196 -911.820007
v 1251.259644 203.866318 -1032.249756
v 1248.557861 195.267288 -911.820007
v 1251.259644 186.668289 -1032.249756
v 1251.348267 177.655426 -911.820007
v 1256.574341 170.312012 -1032.249756
v 1259.443237 161.767548 -911.820007
v 1266.683105 156.398514 -1032.249756
v 1272.051758 149.158783 -911.820007
v 1280.596191 146.289749 -1032.249756
v 1287.939087 141.063477 -911.820007
v 1296.952637 140.975266 -1032.249756
v 1305.552002 138.274048 -911.820007
v 1314.151123 140.975266 -1032.249756
v 1323.164307 141.063507 -911.820007
v 1330.507080 146.289749 -1032.249756
v 1339.051392 149.158783 -911.820007
v 1344.420166 156.398514 -1032.249756
v 1351.660400 161.767548 -911.820007
v 1354.528809 170.312012 -1032.249756
v 1359.755005 177.655426 -911.820007
v 1359.843506 186.668289 -1032.249756
v 1362.545166 195.267288 -911.820007
v 1359.843506 203.866318 -1032.249756
v 1356.328857 221.139725 -911.820007
v 1345.848999 235.564545 -911.820007
v 1331.424438 246.044830 -911.820007
v 1314.467285 251.554626 -911.820007
v 1296.636353 251.554626 -911.820007
v 1279.678711 246.044830 -911.820007
v 1265.254395 235.564545 -911.820007
v 1254.774414 221.139725 -911.820007
v 1249.264282 204.182327 -911.820007
v 1249.264160 186.352264 -911.820007
v 1254.774414 169.394897 -911.820007
v 1265.254517 154.970093 -911.820007
v 1279.678711 144.489838 -911.820007
v 1296.636353 138.980042 -911.820007
v 1314.467285 138.980042 -911.820007
v 1331.424438 144.489838 -911.820007
v 1345.848877 154.970093 -911.820007
v 1356.328857 169.394913 -911.820007
v 1361.838623 186.352280 -911.820007
v 1361.838623 204.182327 -911.820007
vt 0.525025 0.680419
vt 0.525025 0.667301
vt 0.704723 0.667301
vt 0.704723 0.680419
vt 0.525025 0.654182
vt 0.704723 0.654182
vt 0.525025 0.706654
vt 0.525025 0.693537
vt 0.704723 0.693537
vt 0.704723 0.706654
vt 0.525025 0.732882
vt 0.525025 0.719768
vt 0.704723 0.719768
vt 0.704723 0.732882
vt 0.525025 0.759106
vt 0.525025 0.745995
vt 0.704723 0.745995
vt 0.704723 0.759106
vt 0.525025 0.785325
vt 0.525025 0.772217
vt 0.704723 0.772217
vt 0.704723 0.785325
vt 0.525025 0.811536
vt 0.525025 0.798432
vt 0.704723 0.798432
vt 0.704723 0.811536
vt 0.525025 0.837739
vt 0.525025 0.824638
vt 0.704723 0.824638
vt 0.704723 0.837739
vt 0.525025 0.863934
vt 0.525025 0.850838
vt 0.704723 0.850838
vt 0.704723 0.863934
vt 0.525025 0.890120
vt 0.525025 0.877028
vt 0.704723 0.877028
vt 0.704723 0.890120
vt 0.525025 0.391745
vt 0.525025 0.378628
vt 0.704723 0.378628
vt 0.704723 0.391745
vt 0.525025 0.903210
vt 0.704723 0.903210
vt 0.525025 0.417983
vt 0.525025 0.404863
vt 0.704723 0.404863
vt 0.704723 0.417983
vt 0.525025 0.444223
vt 0.525025 0.431103
vt 0.704723 0.431103
vt 0.704723 0.444223
vt 0.525025 0.470466
vt 0.525025 0.457344
vt 0.704723 0.457344
vt 0.704723 0.470466
vt 0.525025 0.496712
vt 0.525025 0.483589
vt 0.704723 0.483589
vt 0.704723 0.496712
vt 0.525025 0.522959
vt 0.525025 0.509836
vt 0.704723 0.509836
vt 0.704723 0.522959
vt 0.525025 0.549205
vt 0.525025 0.536082
vt 0.704723 0.536082
vt 0.704723 0.549205
vt 0.525025 0.575451
vt 0.525025 0.562328
vt 0.704723 0.562328
vt 0.704723 0.575451
vt 0.525025 0.601697
vt 0.525025 0.588574
vt 0.704723 0.588574
vt 0.704723 0.601697
vt 0.525025 0.627940
vt 0.525025 0.614819
vt 0.704723 0.614819
vt 0.704723 0.627940
vt 0.525025 0.641061
vt 0.704723 0.641061
vn -0.793895 -0.576790 0.192468
vn -0.874360 -0.445487 0.192447
vn -0.880044 -0.448374 0.156473
vn -0.799057 -0.580535 0.156487
vn -0.874360 -0.445487 0.192447
vn -0.933276 -0.303247 0.192451
vn -0.939341 -0.305212 0.156474
vn -0.880044 -0.448374 0.156473
vn -0.576811 -0.793882 0.192461
vn -0.693888 -0.693888 0.192454
vn -0.698394 -0.698400 0.156473
vn -0.580555 -0.799043 0.156479
vn -0.693888 -0.693888 0.192454
vn -0.793895 -0.576790 0.192468
vn -0.799057 -0.580535 0.156487
vn -0.698394 -0.698400 0.156473
vn -0.303244 -0.933277 0.192453
vn -0.445522 -0.874343 0.192443
vn -0.448418 -0.880022 0.156469
vn -0.305217 -0.939339 0.156477
vn -0.445522 -0.874343 0.192443
vn -0.576811 -0.793882 0.192461
vn -0.580555 -0.799043 0.156479
vn -0.448418 -0.880022 0.156469
vn 0.000001 -0.981308 0.192444
vn -0.153508 -0.969229 0.192433
vn -0.154504 -0.975524 0.156464
vn 0.000000 -0.987683 0.156471
vn -0.153508 -0.969229 0.192433
vn -0.303244 -0.933277 0.192453
vn -0.305217 -0.939339 0.156477
vn -0.154504 -0.975524 0.156464
vn 0.303236 -0.933279 0.192454
vn 0.153502 -0.969230 0.192433
vn 0.154499 -0.975525 0.156464
vn 0.305206 -0.939343 0.156476
vn 0.153502 -0.969230 0.192433
vn 0.000001 -0.981308 0.192444
vn 0.000000 -0.987683 0.156471
vn 0.154499 -0.975525 0.156464
vn 0.576810 -0.793882 0.192462
vn 0.445516 -0.874345 0.192446
vn 0.448415 -0.880024 0.156469
vn 0.580561 -0.799039 0.156478
vn 0.445516 -0.874345 0.192446
vn 0.303236 -0.933279 0.192454
vn 0.305206 -0.939343 0.156476
vn 0.448415 -0.880024 0.156469
vn 0.793895 -0.576794 0.192455
vn 0.693891 -0.693887 0.192447
vn 0.698401 -0.698393 0.156469
vn 0.799059 -0.580534 0.156477
vn 0.693891 -0.693887 0.192447
vn 0.576810 -0.793882 0.192462
vn 0.580561 -0.799039 0.156478
vn 0.698401 -0.698393 0.156469
vn 0.933275 -0.303253 0.192444
vn 0.874358 -0.445497 0.192432
vn 0.880038 -0.448389 0.156462
vn 0.939335 -0.305231 0.156471
vn 0.874358 -0.445497 0.192432
vn 0.793895 -0.576794 0.192455
vn 0.799059 -0.580534 0.156477
vn 0.880038 -0.448389 0.156462
vn 0.981302 0.000000 0.192472
vn 0.969220 -0.153553 0.192443
vn 0.975515 -0.154556 0.156470
vn 0.987680 0.000000 0.156486
vn 0.969220 -0.153553 0.192443
vn 0.933275 -0.303253 0.192444
vn 0.939335 -0.305231 0.156471
vn 0.975515 -0.154556 0.156470
vn 0.933275 0.303253 0.192447
vn 0.969219 0.153553 0.192450
vn 0.975515 0.154557 0.156471
vn 0.939336 0.305228 0.156473
vn 0.969219 0.153553 0.192450
vn 0.981302 0.000000 0.192472
vn 0.987680 0.000000 0.156486
vn 0.975515 0.154557 0.156471
vn 0.793896 0.576795 0.192452
vn 0.874359 0.445497 0.192431
vn 0.880038 0.448389 0.156463
vn 0.799054 0.580542 0.156474
vn 0.874359 0.445497 0.192431
vn 0.933275 0.303253 0.192447
vn 0.939336 0.305228 0.156473
vn 0.880038 0.448389 0.156463
vn 0.576808 0.793885 0.192458
vn 0.693893 0.693887 0.192441
vn 0.698402 0.698393 0.156467
vn 0.580563 0.799038 0.156478
vn 0.693893 0.693887 0.192441
vn 0.793896 0.576795 0.192452
vn 0.799054 0.580542 0.156474
vn 0.698402 0.698393 0.156467
vn 0.303236 0.933278 0.192456
vn 0.445513 0.874348 0.192444
vn 0.448414 0.880024 0.156469
vn 0.305206 0.939342 0.156477
vn 0.445513 0.874348 0.192444
vn 0.576808 0.793885 0.192458
vn 0.580563 0.799038 0.156478
vn 0.448414 0.880024 0.156469
vn 0.000000 0.981308 0.192445
vn 0.153503 0.969229 0.192436
vn 0.154499 0.975525 0.156465
vn 0.000000 0.987682 0.156472
vn 0.153503 0.969229 0.192436
vn 0.303236 0.933278 0.192456
vn 0.305206 0.939342 0.156477
vn 0.154499 0.975525 0.156465
vn -0.303243 0.933277 0.192454
vn -0.153510 0.969228 0.192435
vn -0.154504 0.975524 0.156466
vn -0.305215 0.939339 0.156478
vn -0.153510 0.969228 0.192435
vn 0.000000 0.981308 0.192445
vn 0.000000 0.987682 0.156472
vn -0.154504 0.975524 0.156466
vn -0.576809 0.793884 0.192456
vn -0.445517 0.874346 0.192441
vn -0.448416 0.880023 0.156470
vn -0.580558 0.799041 0.156478
vn -0.445517 0.874346 0.192441
vn -0.303243 0.933277 0.192454
vn -0.305215 0.939339 0.156478
vn -0.448416 0.880023 0.156470
vn -0.793895 0.576788 0.192474
vn -0.693888 0.693889 0.192451
vn -0.698391 0.698403 0.156471
vn -0.799056 0.580536 0.156484
vn -0.693888 0.693889 0.192451
vn -0.576809 0.793884 0.192456
vn -0.580558 0.799041 0.156478
vn -0.698391 0.698403 0.156471
vn -0.933276 0.303248 0.192451
vn -0.874362 0.445481 0.192450
vn -0.880047 0.448369 0.156472
vn -0.939340 0.305213 0.156476
vn -0.874362 0.445481 0.192450
vn -0.793895 0.576788 0.192474
vn -0.799056 0.580536 0.156484
vn -0.880047 0.448369 0.156472
vn -0.981307 0.000000 0.192447
vn -0.969223 0.153549 0.192433
vn -0.975519 0.154538 0.156462
vn -0.987683 0.000000 0.156468
vn -0.969223 0.153549 0.192433
vn -0.933276 0.303248 0.192451
vn -0.939340 0.305213 0.156476
vn -0.975519 0.154538 0.156462
vn -0.933276 -0.303247 0.192451
vn -0.969223 -0.153547 0.192432
vn -0.975520 -0.154537 0.156461
vn -0.939341 -0.305212 0.156474
vn -0.969223 -0.153547 0.192432
vn -0.981307 0.000000 0.192447
vn -0.987683 0.000000 0.156468
vn -0.975520 -0.154537 0.156461
s off
g polySurface788polySurface819
usemtl initialShadingGroup
f 2/1/1 21/2/2 61/3/3 23/4/4
f 21/2/5 1/5/6 22/6/7 61/3/8
f 3/7/9 24/8/10 62/9/11 25/10/12
f 24/8/13 2/1/14 23/4/15 62/9/16
f 4/11/17 26/12/18 63/13/19 27/14/20
f 26/12/21 3/7/22 25/10/23 63/13/24
f 5/15/25 28/16/26 64/17/27 29/18/28
f 28/16/29 4/11/30 27/14/31 64/17/32
f 6/19/33 30/20/34 65/21/35 31/22/36
f 30/20/37 5/15/38 29/18/39 65/21/40
f 7/23/41 32/24/42 66/25/43 33/26/44
f 32/24/45 6/19/46 31/22/47 66/25/48
f 8/27/49 34/28/50 67/29/51 35/30/52
f 34/28/53 7/23/54 33/26/55 67/29/56
f 9/31/57 36/32/58 68/33/59 37/34/60
f 36/32/61 8/27/62 35/30/63 68/33/64
f 10/35/65 38/36/66 69/37/67 39/38/68
f 38/36/69 9/31/70 37/34/71 69/37/72
f 11/39/73 40/40/74 70/41/75 41/42/76
f 40/43/77 10/35/78 39/38/79 70/44/80
f 12/45/81 42/46/82 71/47/83 43/48/84
f 42/46/85 11/39/86 41/42/87 71/47/88
f 13/49/89 44/50/90 72/51/91 45/52/92
f 44/50/93 12/45/94 43/48/95 72/51/96
f 14/53/97 46/54/98 73/55/99 47/56/100
f 46/54/101 13/49/102 45/52/103 73/55/104
f 15/57/105 48/58/106 74/59/107 49/60/108
f 48/58/109 14/53/110 47/56/111 74/59/112
f 16/61/113 50/62/114 75/63/115 51/64/116
f 50/62/117 15/57/118 49/60/119 75/63/120
f 17/65/121 52/66/122 76/67/123 53/68/124
f 52/66/125 16/61/126 51/64/127 76/67/128
f 18/69/129 54/70/130 77/71/131 55/72/132
f 54/70/133 17/65/134 53/68/135 77/71/136
f 19/73/137 56/74/138 78/75/139 57/76/140
f 56/74/141 18/69/142 55/72/143 78/75/144
f 20/77/145 58/78/146 79/79/147 59/80/148
f 58/78/149 19/73/150 57/76/151 79/79/152
f 1/5/153 60/81/154 80/82/155 22/6/156
f 60/81/157 20/77/158 59/80/159 80/82/160
